<svg xmlns="http://www.w3.org/2000/svg" viewBox="0 0 19.118 19.118"><g fill="#030104"><path d="M16.981 0H2.137a.737.737 0 00-.736.736v17.646c0 .408.33.736.736.736H16.98a.735.735 0 00.736-.736V.736A.735.735 0 0016.981 0zm-.736 17.646H2.873V1.473h13.371v16.173z"/><path d="M7.64 4.668H4.946v2.693h2.693V4.668h.001zm-.328.894L6.116 6.758a.08.08 0 01-.115 0l-.729-.732a.085.085 0 010-.117l.175-.172a.08.08 0 01.116 0l.497.499.963-.963a.083.083 0 01.117 0l.173.174a.08.08 0 01-.001.115zM8.202 5.274h6.161v1.481H8.202zM7.64 8.18H4.946v2.692h2.693V8.18h.001zm-.328.893l-1.196 1.196a.08.08 0 01-.115 0l-.729-.732a.084.084 0 010-.116l.175-.173a.082.082 0 01.116 0l.497.499.963-.963a.083.083 0 01.117 0l.173.173a.081.081 0 01-.001.116zM8.202 8.785h6.161v1.481H8.202zM4.947 11.769H7.64v2.693H4.947zM8.202 12.376h6.161v1.48H8.202z"/></g></svg>